<?xml version="1.0" encoding="UTF-8"?>
<svg width="20px" height="20px" viewBox="0 0 20 20" version="1.1" xmlns="http://www.w3.org/2000/svg" xmlns:xlink="http://www.w3.org/1999/xlink">
    <!-- Generator: sketchtool 54.1 (76490) - https://sketchapp.com -->
    <title>4A2C2A43-6E0E-43C5-B436-AA45BE894623</title>
    <desc>Created with sketchtool.</desc>
    <defs>
        <path d="M10,2 C5.5820695,2 2,5.5820695 2,10 C2,14.4179305 5.5820695,18 10,18 C14.4179305,18 18,14.4179305 18,10 C18,5.5820695 14.4179305,2 10,2 Z M10,0 C15.5225,0 20,4.4775 20,10 C20,15.5225 15.5225,20 10,20 C4.4775,20 0,15.5225 0,10 C0,4.4775 4.4775,0 10,0 Z" id="path-1"></path>
    </defs>
    <g id="Car-Listing" stroke="none" stroke-width="1" fill="none" fill-rule="evenodd" opacity="0.200000003">
        <g id="Estimation-St1" transform="translate(-735.000000, -871.000000)">
            <g id="Group-4-Copy-7" transform="translate(165.000000, 195.000000)">
                <g id="Group-4-Copy" transform="translate(40.000000, 323.000000)">
                    <g id="Group-8" transform="translate(520.000000, 0.000000)">
                        <g id="select/element/default-copy-11" transform="translate(0.000000, 339.000000)">
                            <g id="Group-3">
                                <g id="ic/outline-circle" transform="translate(10.000000, 14.000000)">
                                    <mask id="mask-2" fill="white">
                                        <use xlink:href="#path-1"></use>
                                    </mask>
                                    <use id="Mask" fill="#6E768F" fill-rule="nonzero" xlink:href="#path-1"></use>
                                    <g id="color/grey" mask="url(#mask-2)" fill="#6E768F">
                                        <rect id="Rectangle" x="0" y="0" width="20" height="20"></rect>
                                    </g>
                                </g>
                            </g>
                        </g>
                    </g>
                </g>
            </g>
        </g>
    </g>
</svg>