<?xml version="1.0" encoding="UTF-8"?>
<svg width="18px" height="18px" viewBox="0 0 18 18" version="1.1" xmlns="http://www.w3.org/2000/svg" xmlns:xlink="http://www.w3.org/1999/xlink">
    <!-- Generator: sketchtool 54.1 (76490) - https://sketchapp.com -->
    <title>756FF808-8C5E-420D-BB31-4CFE6C17AB6D</title>
    <desc>Created with sketchtool.</desc>
    <g id="Car-Listing" stroke="none" stroke-width="1" fill="none" fill-rule="evenodd">
        <g id="Car-Single-Page-(Seller-View)" transform="translate(-616.000000, -252.000000)" fill="#6E768F" fill-rule="nonzero">
            <g id="Group-22-Copy-4" transform="translate(601.000000, 240.000000)">
                <g id="Icon-Copy-4" transform="translate(15.000000, 12.000000)">
                    <g id="baseline-swap_horizontal_circle-24px">
                        <path d="M18,9 C18,4.032 13.968,0 9,0 C4.032,0 0,4.032 0,9 C0,13.968 4.032,18 9,18 C13.968,18 18,13.968 18,9 Z M11.7,4.05 L14.85,7.2 L11.7,10.35 L11.7,8.1 L8.1,8.1 L8.1,6.3 L11.7,6.3 L11.7,4.05 Z M6.3,13.95 L3.15,10.8 L6.3,7.65 L6.3,9.9 L9.9,9.9 L9.9,11.7 L6.3,11.7 L6.3,13.95 Z" id="Shape"></path>
                    </g>
                </g>
            </g>
        </g>
    </g>
</svg>