<?xml version="1.0" encoding="UTF-8"?>
<svg width="13px" height="17px" viewBox="0 0 13 17" version="1.1" xmlns="http://www.w3.org/2000/svg" xmlns:xlink="http://www.w3.org/1999/xlink">
    <!-- Generator: sketchtool 54.1 (76490) - https://sketchapp.com -->
    <title>8A8FBEB7-FAC7-4C8B-915F-F862D0F8511F</title>
    <desc>Created with sketchtool.</desc>
    <g id="Car-Listing" stroke="none" stroke-width="1" fill="none" fill-rule="evenodd">
        <g id="Car-Single-Page-(Buyer-View)" transform="translate(-370.000000, -253.000000)">
            <g id="Group-22-Copy" transform="translate(352.000000, 240.000000)">
                <g id="Icon-Copy-4" transform="translate(15.000000, 12.000000)">
                    <g id="baseline-description-24px">
                        <polygon id="Path" points="0 0 18 0 18 18 0 18"></polygon>
                        <path d="M10.9125,1.8 L5.0625,1.8 C4.258125,1.8 3.6073125,2.4885 3.6073125,3.33 L3.6,15.57 C3.6,16.4115 4.2508125,17.1 5.0551875,17.1 L13.8375,17.1 C14.641875,17.1 15.3,16.4115 15.3,15.57 L15.3,6.39 L10.9125,1.8 Z M12.375,14.0399997 L6.525,14.0399997 L6.525,12.5099997 L12.375,12.5099997 L12.375,14.0399997 Z M12.375,10.98 L6.525,10.98 L6.525,9.45 L12.375,9.45 L12.375,10.98 Z M10.18125,7.15500015 L10.18125,2.94749998 L14.203125,7.15500015 L10.18125,7.15500015 Z" id="Shape" fill="#6E768F"></path>
                    </g>
                </g>
            </g>
        </g>
    </g>
</svg>