<?xml version="1.0" encoding="UTF-8"?>
<svg width="10px" height="14px" viewBox="0 0 10 14" version="1.1" xmlns="http://www.w3.org/2000/svg" xmlns:xlink="http://www.w3.org/1999/xlink">
    <!-- Generator: sketchtool 54.1 (76490) - https://sketchapp.com -->
    <title>8AAE27A7-838C-4456-BF53-55001A18F6E2</title>
    <desc>Created with sketchtool.</desc>
    <defs>
        <path d="M7,0 C4.291,0 2.1,2.191 2.1,4.9 C2.1,8.575 7,14 7,14 C7,14 11.9,8.575 11.9,4.9 C11.9,2.191 9.709,0 7,0 Z M7,6.65 C6.034,6.65 5.25,5.866 5.25,4.9 C5.25,3.934 6.034,3.15 7,3.15 C7.966,3.15 8.75,3.934 8.75,4.9 C8.75,5.866 7.966,6.65 7,6.65 Z" id="path-1"></path>
    </defs>
    <g id="Car-Listing" stroke="none" stroke-width="1" fill="none" fill-rule="evenodd">
        <g id="Car-Single-Page-(Buyer-View)" transform="translate(-182.000000, -568.000000)">
            <g id="Group-9-Copy" transform="translate(165.000000, 302.000000)">
                <g id="Icon-Copy" transform="translate(15.000000, 266.000000)">
                    <mask id="mask-2" fill="white">
                        <use xlink:href="#path-1"></use>
                    </mask>
                    <use id="Mask" fill="#434552" fill-rule="nonzero" xlink:href="#path-1"></use>
                    <g id="color/grey" mask="url(#mask-2)" fill="#6E768F">
                        <rect id="Rectangle" x="0" y="0" width="14" height="14"></rect>
                    </g>
                </g>
            </g>
        </g>
    </g>
</svg>