<?xml version="1.0" encoding="UTF-8"?>
<svg width="19px" height="18px" viewBox="0 0 19 18" version="1.1" xmlns="http://www.w3.org/2000/svg" xmlns:xlink="http://www.w3.org/1999/xlink">
    <!-- Generator: sketchtool 54.1 (76490) - https://sketchapp.com -->
    <title>AD35DF41-691F-4BAE-A118-202CFA7ACB88</title>
    <desc>Created with sketchtool.</desc>
    <defs>
        <path d="M9.82938245,14.8637799 C10.1505672,14.6949231 10.5342749,14.6949231 10.8554596,14.8637799 L14.8510885,16.9644063 L14.0879913,12.5152081 C14.0266504,12.1575637 14.1452226,11.7926359 14.4050666,11.5393507 L17.6375982,8.38841107 L13.1703493,7.7392818 C12.8112539,7.68710217 12.5008278,7.46156443 12.3402355,7.13616874 L10.342421,3.0881545 L8.34460662,7.13616874 C8.18401426,7.46156443 7.87358819,7.68710217 7.51449274,7.7392818 L3.04724389,8.38841107 L6.27977552,11.5393507 C6.53961944,11.7926359 6.65819164,12.1575637 6.59685081,12.5152081 L5.83375361,16.9644063 L9.82938245,14.8637799 Z M10.342421,16.3734558 L5.90756482,18.7049977 C5.31728498,19.0153262 4.58719769,18.7883807 4.27686921,18.1981009 C4.15329479,17.9630484 4.11065232,17.6938144 4.15554335,17.4320796 L5.00252552,12.4937947 L1.4146515,8.99648198 C0.937105082,8.53098927 0.927333622,7.76650501 1.39282634,7.2889586 C1.57818798,7.09879711 1.82106744,6.97504385 2.08386416,6.93685725 L7.04218409,6.2163712 L9.25961218,1.72337121 C9.5547521,1.12535242 10.2788003,0.879820581 10.8768191,1.1749605 C11.1149533,1.29248676 11.3077035,1.48523699 11.4252298,1.72337121 L13.6426579,6.2163712 L18.6009778,6.93685725 C19.2609308,7.03275402 19.7181886,7.64549126 19.6222918,8.30544417 C19.5841052,8.56824088 19.460352,8.81112034 19.2701905,8.99648198 L15.6823165,12.4937947 L16.5292986,17.4320796 C16.6420321,18.0893658 16.2005848,18.7135901 15.5432985,18.8263235 C15.2815637,18.8712146 15.0123297,18.8285721 14.7772772,18.7049977 L10.342421,16.3734558 Z" id="path-1"></path>
    </defs>
    <g id="Car-Listing" stroke="none" stroke-width="1" fill="none" fill-rule="evenodd" opacity="0.600000024">
        <g id="Home-Page---V2" transform="translate(-646.000000, -5210.000000)">
            <g id="Group-8" transform="translate(165.000000, 4615.000000)">
                <g id="Group-3-Copy" transform="translate(0.000000, 579.000000)">
                    <g id="Group-17" transform="translate(384.000000, 15.000000)">
                        <g id="Icon-Copy-8" transform="translate(96.000000, 0.000000)">
                            <mask id="mask-2" fill="white">
                                <use xlink:href="#path-1"></use>
                            </mask>
                            <use id="Mask" fill="#6E768F" fill-rule="nonzero" xlink:href="#path-1"></use>
                            <g id="color/grey" mask="url(#mask-2)" fill="#FFA80D">
                                <rect id="Rectangle" x="0" y="0" width="21" height="21"></rect>
                            </g>
                        </g>
                    </g>
                </g>
            </g>
        </g>
    </g>
</svg>