<?xml version="1.0" encoding="UTF-8"?>
<svg width="17px" height="17px" viewBox="0 0 17 17" version="1.1" xmlns="http://www.w3.org/2000/svg" xmlns:xlink="http://www.w3.org/1999/xlink">
    <!-- Generator: sketchtool 54.1 (76490) - https://sketchapp.com -->
    <title>BB8CAB35-7805-4396-B063-78061BAB24D3</title>
    <desc>Created with sketchtool.</desc>
    <defs>
        <path d="M10.3603977,15.2983933 L5.66281824,17.7680569 C5.4672804,17.8708573 5.22542953,17.7956787 5.12262921,17.6001408 C5.08169358,17.5222766 5.06756771,17.4330894 5.08243845,17.3463863 L5.97959629,12.1155548 C5.99628767,12.0182366 5.96402312,11.9189365 5.89331729,11.8500154 L2.09289571,8.14551988 C1.93470228,7.99131939 1.93146535,7.73807408 2.08566584,7.57988065 C2.14706928,7.51688719 2.22752625,7.47589232 2.31458106,7.46324252 L7.56663452,6.70007448 C7.66434757,6.68587594 7.74881725,6.62450512 7.79251585,6.53596208 L10.1413056,1.77679431 C10.2390745,1.57869284 10.4789248,1.49735724 10.6770263,1.59512616 C10.7559113,1.63405826 10.8197623,1.69790927 10.8586944,1.77679431 L13.2074841,6.53596208 C13.2511828,6.62450512 13.3356524,6.68587594 13.4333655,6.70007448 L18.6854189,7.46324252 C18.9040369,7.49500956 19.0555095,7.69798671 19.0237424,7.91660466 C19.0110926,8.00365947 18.9700977,8.08411643 18.9071043,8.14551988 L15.1066827,11.8500154 C15.0359769,11.9189365 15.0037123,12.0182366 15.0204037,12.1155548 L15.9175616,17.3463863 C15.954906,17.5641209 15.8086708,17.7709033 15.5909362,17.8082477 C15.5042332,17.8231184 15.415046,17.8089926 15.3371818,17.7680569 L10.6396023,15.2983933 C10.5522051,15.2524459 10.4477949,15.2524459 10.3603977,15.2983933 Z" id="path-1"></path>
    </defs>
    <g id="Car-Listing" stroke="none" stroke-width="1" fill="none" fill-rule="evenodd">
        <g id="Home-Page---V2" transform="translate(-575.000000, -4930.000000)">
            <g id="Group-8" transform="translate(165.000000, 4615.000000)">
                <g id="Group-3" transform="translate(0.000000, 299.000000)">
                    <g id="Group-17" transform="translate(384.000000, 15.000000)">
                        <g id="Icon-Copy-2" transform="translate(24.000000, 0.000000)">
                            <mask id="mask-2" fill="white">
                                <use xlink:href="#path-1"></use>
                            </mask>
                            <use id="Mask" fill="#FFFFFF" xlink:href="#path-1"></use>
                            <g id="color/grey" mask="url(#mask-2)" fill="#FFA80D">
                                <rect id="Rectangle" x="0" y="0" width="21" height="21"></rect>
                            </g>
                        </g>
                    </g>
                </g>
            </g>
        </g>
    </g>
</svg>